<svg width="206" height="27" viewBox="0 0 206 27" fill="none" xmlns="http://www.w3.org/2000/svg">
<path d="M16.0167 9.64226C16.0167 11.5667 15.3531 13.1704 14.0259 14.4534C12.7209 15.7142 10.719 16.3446 8.02036 16.3446H3.57424V26H0.55486V2.87354H8.02036C10.6305 2.87354 12.6103 3.50396 13.9596 4.7648C15.331 6.02564 16.0167 7.65146 16.0167 9.64226ZM8.02036 13.8561C9.70148 13.8561 10.9402 13.4911 11.7365 12.7612C12.5328 12.0312 12.931 10.9916 12.931 9.64226C12.931 6.78878 11.2941 5.36204 8.02036 5.36204H3.57424V13.8561H8.02036ZM28.7944 7.48556C30.1659 7.48556 31.4046 7.78418 32.5106 8.38142C33.6166 8.95654 34.4793 9.83028 35.0986 11.0026C35.7401 12.175 36.0608 13.6017 36.0608 15.2829V26H33.0746V15.7142C33.0746 13.9004 32.6212 12.5179 31.7143 11.5667C30.8073 10.5934 29.5686 10.1068 27.9981 10.1068C26.4055 10.1068 25.1336 10.6045 24.1824 11.5999C23.2534 12.5953 22.7888 14.0441 22.7888 15.9465V26H19.7695V1.4468H22.7888V10.4054C23.3861 9.47636 24.2045 8.75746 25.2442 8.2487C26.3059 7.73994 27.4893 7.48556 28.7944 7.48556ZM48.923 26.2986C47.2198 26.2986 45.6714 25.9115 44.2778 25.1373C42.9064 24.3631 41.8225 23.2682 41.0262 21.8525C40.252 20.4147 39.8649 18.7557 39.8649 16.8755C39.8649 15.0174 40.263 13.3805 41.0593 11.9649C41.8778 10.5271 42.9838 9.43212 44.3773 8.68004C45.7709 7.90584 47.3304 7.51874 49.0557 7.51874C50.7811 7.51874 52.3405 7.90584 53.7341 8.68004C55.1277 9.43212 56.2226 10.516 57.0189 11.9317C57.8374 13.3474 58.2466 14.9953 58.2466 16.8755C58.2466 18.7557 57.8263 20.4147 56.9857 21.8525C56.1673 23.2682 55.0502 24.3631 53.6346 25.1373C52.2189 25.9115 50.6484 26.2986 48.923 26.2986ZM48.923 23.6442C50.0069 23.6442 51.0244 23.3898 51.9756 22.8811C52.9267 22.3723 53.6899 21.6092 54.265 20.5917C54.8622 19.5741 55.1608 18.3354 55.1608 16.8755C55.1608 15.4156 54.8733 14.1769 54.2982 13.1593C53.723 12.1418 52.971 11.3897 52.0419 10.9031C51.1129 10.3943 50.1064 10.14 49.0225 10.14C47.9165 10.14 46.899 10.3943 45.97 10.9031C45.0631 11.3897 44.3331 12.1418 43.7801 13.1593C43.2271 14.1769 42.9506 15.4156 42.9506 16.8755C42.9506 18.3575 43.216 19.6073 43.7469 20.6248C44.2999 21.6424 45.0299 22.4055 45.9368 22.9143C46.8437 23.4009 47.8391 23.6442 48.923 23.6442ZM65.8995 10.3059V21.023C65.8995 21.9078 66.0875 22.5382 66.4636 22.9143C66.8396 23.2682 67.4921 23.4451 68.4212 23.4451H70.6442V26H67.9235C66.2424 26 64.9815 25.6129 64.141 24.8387C63.3004 24.0645 62.8801 22.7926 62.8801 21.023V10.3059H60.5243V7.81736H62.8801V3.23852H65.8995V7.81736H70.6442V10.3059H65.8995ZM82.2326 26.2986C80.5294 26.2986 78.981 25.9115 77.5874 25.1373C76.216 24.3631 75.1321 23.2682 74.3358 21.8525C73.5616 20.4147 73.1745 18.7557 73.1745 16.8755C73.1745 15.0174 73.5726 13.3805 74.369 11.9649C75.1874 10.5271 76.2934 9.43212 77.687 8.68004C79.0805 7.90584 80.64 7.51874 82.3653 7.51874C84.0907 7.51874 85.6502 7.90584 87.0437 8.68004C88.4373 9.43212 89.5322 10.516 90.3285 11.9317C91.147 13.3474 91.5562 14.9953 91.5562 16.8755C91.5562 18.7557 91.1359 20.4147 90.2954 21.8525C89.4769 23.2682 88.3599 24.3631 86.9442 25.1373C85.5285 25.9115 83.958 26.2986 82.2326 26.2986ZM82.2326 23.6442C83.3165 23.6442 84.334 23.3898 85.2852 22.8811C86.2363 22.3723 86.9995 21.6092 87.5746 20.5917C88.1718 19.5741 88.4705 18.3354 88.4705 16.8755C88.4705 15.4156 88.1829 14.1769 87.6078 13.1593C87.0327 12.1418 86.2806 11.3897 85.3515 10.9031C84.4225 10.3943 83.416 10.14 82.3322 10.14C81.2262 10.14 80.2086 10.3943 79.2796 10.9031C78.3727 11.3897 77.6427 12.1418 77.0897 13.1593C76.5367 14.1769 76.2602 15.4156 76.2602 16.8755C76.2602 18.3575 76.5257 19.6073 77.0565 20.6248C77.6095 21.6424 78.3395 22.4055 79.2464 22.9143C80.1533 23.4009 81.1487 23.6442 82.2326 23.6442ZM95.9906 2.87354H99.3418L96.1565 10.4054H94.033L95.9906 2.87354ZM109.221 26.2986C107.828 26.2986 106.578 26.0664 105.472 25.6018C104.366 25.1152 103.492 24.4516 102.851 23.611C102.209 22.7484 101.855 21.764 101.789 20.658H104.908C104.996 21.5649 105.417 22.306 106.169 22.8811C106.943 23.4562 107.949 23.7438 109.188 23.7438C110.338 23.7438 111.245 23.4894 111.909 22.9806C112.572 22.4719 112.904 21.8304 112.904 21.0562C112.904 20.2599 112.55 19.6737 111.842 19.2976C111.135 18.8995 110.04 18.5124 108.558 18.1363C107.208 17.7824 106.102 17.4285 105.24 17.0746C104.399 16.6985 103.669 16.1566 103.05 15.4488C102.452 14.7188 102.154 13.7676 102.154 12.5953C102.154 11.6662 102.43 10.8146 102.983 10.0404C103.536 9.26622 104.322 8.65792 105.339 8.21552C106.357 7.751 107.518 7.51874 108.823 7.51874C110.836 7.51874 112.462 8.0275 113.7 9.04502C114.939 10.0625 115.603 11.4561 115.691 13.2257H112.672C112.606 12.2745 112.218 11.5114 111.511 10.9363C110.825 10.3612 109.896 10.0736 108.723 10.0736C107.64 10.0736 106.777 10.3059 106.135 10.7704C105.494 11.2349 105.173 11.8432 105.173 12.5953C105.173 13.1925 105.361 13.6902 105.737 14.0884C106.135 14.4644 106.622 14.7741 107.197 15.0174C107.794 15.2386 108.613 15.493 109.653 15.7806C110.958 16.1345 112.019 16.4884 112.838 16.8423C113.656 17.1741 114.353 17.6829 114.928 18.3686C115.525 19.0543 115.835 19.9502 115.857 21.0562C115.857 22.0516 115.581 22.9474 115.028 23.7438C114.475 24.5401 113.689 25.1705 112.672 25.635C111.676 26.0774 110.526 26.2986 109.221 26.2986ZM143.2 2.87354V5.32886H136.895V26H133.876V5.32886H127.539V2.87354H143.2ZM148.476 4.86434C147.901 4.86434 147.414 4.66526 147.016 4.2671C146.618 3.86894 146.419 3.3823 146.419 2.80718C146.419 2.23206 146.618 1.74542 147.016 1.34726C147.414 0.949099 147.901 0.750019 148.476 0.750019C149.029 0.750019 149.493 0.949099 149.869 1.34726C150.267 1.74542 150.467 2.23206 150.467 2.80718C150.467 3.3823 150.267 3.86894 149.869 4.2671C149.493 4.66526 149.029 4.86434 148.476 4.86434ZM149.936 7.81736V26H146.916V7.81736H149.936ZM176.947 7.48556C178.363 7.48556 179.624 7.78418 180.73 8.38142C181.836 8.95654 182.71 9.83028 183.351 11.0026C183.992 12.175 184.313 13.6017 184.313 15.2829V26H181.327V15.7142C181.327 13.9004 180.874 12.5179 179.967 11.5667C179.082 10.5934 177.876 10.1068 176.35 10.1068C174.78 10.1068 173.53 10.6155 172.601 11.6331C171.672 12.6285 171.207 14.0773 171.207 15.9796V26H168.221V15.7142C168.221 13.9004 167.767 12.5179 166.861 11.5667C165.976 10.5934 164.77 10.1068 163.244 10.1068C161.673 10.1068 160.424 10.6155 159.495 11.6331C158.566 12.6285 158.101 14.0773 158.101 15.9796V26H155.082V7.81736H158.101V10.4386C158.698 9.48742 159.495 8.75746 160.49 8.2487C161.507 7.73994 162.625 7.48556 163.841 7.48556C165.367 7.48556 166.717 7.82842 167.889 8.51414C169.061 9.19986 169.935 10.2063 170.51 11.5335C171.019 10.2506 171.86 9.25516 173.032 8.54732C174.204 7.83948 175.509 7.48556 176.947 7.48556ZM205.856 16.2119C205.856 16.787 205.823 17.3953 205.757 18.0368H191.224C191.334 19.8285 191.943 21.2331 193.049 22.2507C194.177 23.2461 195.537 23.7438 197.13 23.7438C198.435 23.7438 199.519 23.4451 200.381 22.8479C201.266 22.2285 201.886 21.4101 202.239 20.3926H205.491C205.004 22.1401 204.031 23.5668 202.571 24.6728C201.111 25.7567 199.298 26.2986 197.13 26.2986C195.404 26.2986 193.856 25.9115 192.485 25.1373C191.135 24.3631 190.073 23.2682 189.299 21.8525C188.525 20.4147 188.138 18.7557 188.138 16.8755C188.138 14.9953 188.514 13.3474 189.266 11.9317C190.018 10.516 191.069 9.43212 192.418 8.68004C193.79 7.90584 195.36 7.51874 197.13 7.51874C198.855 7.51874 200.381 7.89478 201.709 8.64686C203.036 9.39894 204.053 10.4386 204.761 11.7658C205.491 13.0709 205.856 14.5529 205.856 16.2119ZM202.737 15.5815C202.737 14.4312 202.483 13.4469 201.974 12.6285C201.465 11.7879 200.769 11.1575 199.884 10.7372C199.021 10.2948 198.059 10.0736 196.997 10.0736C195.471 10.0736 194.166 10.5602 193.082 11.5335C192.02 12.5068 191.412 13.8561 191.257 15.5815H202.737Z" fill="white"/>
</svg>
