<svg width="61" height="42" viewBox="0 0 61 42" fill="none" xmlns="http://www.w3.org/2000/svg">
<path d="M9.59242 23.3127H4.231V5.32254H0.140206V0.658418H13.6522V5.32254H9.59242V23.3127ZM16.0695 23.3127V0.658418H21.4619V23.3127H16.0695ZM42.2878 23.3127H35.9966L30.0929 9.22739H29.9689C30.0309 10.0538 30.0774 10.8234 30.1084 11.5362C30.1497 12.2387 30.1755 12.8792 30.1859 13.4576C30.2065 14.0258 30.2168 14.5268 30.2168 14.9607V23.3127H25.2118V0.658418H31.4565L37.3293 14.3564H37.4532C37.4119 13.5919 37.3757 12.8792 37.3447 12.218C37.3138 11.5569 37.2879 10.9474 37.2673 10.3896C37.2466 9.83172 37.2363 9.32553 37.2363 8.871V0.658418H42.2878V23.3127ZM52.5458 8.90199L55.304 0.658418H60.8513L55.211 14.6198V23.3127H49.8186V14.8058L44.1627 0.658418H49.7721L52.5458 8.90199ZM8.18578 41.3127L6.01642 32.8505H5.94755C5.97625 33.2293 5.9992 33.5966 6.01642 33.9524C6.03938 34.3025 6.05659 34.6354 6.06807 34.951C6.07955 35.2667 6.08529 35.5651 6.08529 35.8463V41.3127H3.2875V28.727H7.39379L9.34794 36.2853H9.39959L11.3623 28.727H15.4342V41.3127H12.5589V35.7946C12.5589 35.479 12.5647 35.1662 12.5762 34.8563C12.5876 34.5407 12.602 34.2164 12.6192 33.8835C12.6364 33.5507 12.6565 33.2063 12.6795 32.8505H12.6106L10.4068 41.3127H8.18578ZM26.7459 35.0027C26.7459 36.0586 26.6426 36.9912 26.436 37.8004C26.2351 38.6039 25.9309 39.2811 25.5235 39.8321C25.1217 40.3773 24.6224 40.7905 24.0256 41.0717C23.4344 41.3472 22.7486 41.4849 21.9681 41.4849C21.1933 41.4849 20.5075 41.3443 19.9107 41.0631C19.3138 40.7819 18.8116 40.3687 18.4042 39.8235C17.9967 39.2725 17.6896 38.5924 17.483 37.7832C17.2764 36.974 17.1731 36.0414 17.1731 34.9854C17.1731 33.5851 17.3539 32.4057 17.7155 31.4473C18.0828 30.4889 18.6222 29.7629 19.3339 29.2693C20.0513 28.7758 20.9293 28.529 21.9681 28.529C23.0126 28.529 23.8878 28.7729 24.5937 29.2607C25.3054 29.7486 25.842 30.4745 26.2035 31.4387C26.5651 32.3971 26.7459 33.5851 26.7459 35.0027ZM20.2894 35.0027C20.2894 35.8578 20.3526 36.5723 20.4788 37.1462C20.6051 37.7201 20.7916 38.1505 21.0384 38.4375C21.2909 38.7187 21.6008 38.8593 21.9681 38.8593C22.3469 38.8593 22.6568 38.7216 22.8978 38.4461C23.1446 38.1706 23.3254 37.7488 23.4402 37.1806C23.5607 36.6067 23.621 35.8807 23.621 35.0027C23.621 33.6712 23.4832 32.6898 23.2077 32.0585C22.938 31.4215 22.5248 31.103 21.9681 31.103C21.6008 31.103 21.2909 31.2493 21.0384 31.542C20.7916 31.829 20.6051 32.2623 20.4788 32.8419C20.3526 33.4158 20.2894 34.1361 20.2894 35.0027ZM37.3086 28.727L34.0976 41.3127H30.6111L27.4346 28.727H30.5767L31.8421 34.9338C31.8995 35.2093 31.9627 35.5479 32.0315 35.9496C32.1061 36.3513 32.1721 36.7502 32.2295 37.1462C32.2869 37.5422 32.3271 37.8664 32.3501 38.119C32.3845 37.8664 32.4304 37.5451 32.4878 37.1548C32.5509 36.7588 32.6169 36.3628 32.6858 35.9668C32.7604 35.5651 32.8264 35.2265 32.8838 34.951L34.1665 28.727H37.3086ZM38.3588 41.3127V28.727H41.3546V41.3127H38.3588ZM49.4983 41.3127H43.4379V28.727H49.4983V31.2665H46.4337V33.5392H49.2745V36.0787H46.4337V38.7388H49.4983V41.3127ZM57.7798 37.4905C57.7798 38.271 57.6162 38.9626 57.2891 39.5652C56.9677 40.1621 56.5115 40.6327 55.9203 40.977C55.3292 41.3156 54.6319 41.4849 53.8284 41.4849C53.4669 41.4849 53.1139 41.4591 52.7696 41.4074C52.431 41.3615 52.0924 41.2812 51.7538 41.1664C51.4152 41.0516 51.0651 40.8938 50.7035 40.6929V37.6627C51.1971 37.9956 51.7021 38.2567 52.2186 38.4461C52.7409 38.6297 53.2172 38.7216 53.6477 38.7216C53.8944 38.7216 54.0953 38.6814 54.2503 38.601C54.411 38.5207 54.5286 38.4117 54.6032 38.2739C54.6836 38.1304 54.7237 37.9669 54.7237 37.7832C54.7237 37.5996 54.6922 37.4303 54.629 37.2753C54.5659 37.1146 54.4253 36.9396 54.2072 36.7502C53.9891 36.5551 53.6505 36.314 53.1914 36.0271C52.8241 35.7918 52.4912 35.5565 52.1928 35.3212C51.8944 35.0801 51.639 34.819 51.4267 34.5378C51.22 34.2508 51.0594 33.9208 50.9446 33.5478C50.8355 33.1748 50.781 32.7357 50.781 32.2307C50.781 31.4846 50.9274 30.8361 51.22 30.2852C51.5127 29.7342 51.9432 29.3067 52.5113 29.0025C53.0795 28.6983 53.7768 28.5462 54.6032 28.5462C55.1255 28.5462 55.6506 28.6208 56.1786 28.7701C56.7066 28.9193 57.2403 29.146 57.7798 29.4501L56.9792 32.0757C56.543 31.8003 56.1384 31.5965 55.7654 31.4645C55.3923 31.3325 55.0451 31.2665 54.7237 31.2665C54.5114 31.2665 54.3364 31.3038 54.1986 31.3784C54.0666 31.4473 53.9691 31.542 53.9059 31.6625C53.8428 31.7831 53.8112 31.9208 53.8112 32.0757C53.8112 32.2996 53.8485 32.4918 53.9231 32.6525C53.9977 32.8132 54.1498 32.9854 54.3794 33.169C54.6147 33.3469 54.9705 33.5822 55.4469 33.8749C55.9519 34.1848 56.3766 34.512 56.7209 34.8563C57.071 35.2007 57.335 35.5852 57.5129 36.0099C57.6908 36.4346 57.7798 36.9281 57.7798 37.4905Z" fill="#F9F9F9"/>
</svg>
